<svg xmlns="http://www.w3.org/2000/svg" xmlns:xlink="http://www.w3.org/1999/xlink" fill="none" version="1.1" width="17" height="19.1668758392334" viewBox="0 0 17 19.1668758392334"><g><path d="M8.50004,0.5C5.58181,0.5,3.20784,2.87406,3.20784,5.79229C3.20784,7.90568,4.45585,9.72834,6.25102,10.576C2.93222,11.5506,0.5,14.619,0.5,18.2488C0.5,18.4798,0.687217,18.6669,0.91805,18.6669C1.148884,18.6669,1.336101,18.4798,1.336101,18.2488C1.336101,14.2985,4.55019,11.0846,8.50002,11.0846C11.4183,11.0846,13.7924,8.71053,13.7924,5.79229C13.7924,2.87406,11.4183,0.50000102919,8.50004,0.5ZM8.50004,10.24846C6.04278,10.24846,4.04396,8.24934,4.04396,5.79227C4.04396,3.33509,6.04278,1.336078,8.50005,1.336078C10.9574,1.336078,12.9563,3.33509,12.9563,5.79227C12.9563,8.24945,10.9575,10.24846,8.50004,10.24846ZM13.3527,11.8876C13.169,11.7476,12.9069,11.7823,12.7669,11.966C12.6265,12.1497,12.6616,12.4118,12.8452,12.5523C14.6367,13.9212,15.6639,15.9976,15.6639,18.2487C15.6639,18.4798,15.8512,18.6669,16.081899999999997,18.6669C16.313000000000002,18.6669,16.5,18.4798,16.5,18.2487C16.5,15.7347,15.3528,13.4162,13.3527,11.8876Z" fill="#3D3D3D" fill-opacity="1" style="mix-blend-mode:passthrough"/><path d="M12.5941,9.88634Q14.2924,8.18808,14.2924,5.79229Q14.2924,3.39652,12.5941,1.69825Q10.8958,9.999999999732445e-7,8.50004,0Q6.10427,0,4.4060500000000005,1.69826Q2.70784,3.3965,2.70784,5.79229Q2.70784,7.5008,3.63694,8.93115Q4.23155,9.84657,5.08446,10.46587Q3.09524,11.3259,1.73323,13.1137Q0,15.3887,0,18.2488Q0,19.1669,0.91805,19.1669Q1.8361,19.1669,1.8361,18.2488Q1.8361,15.4933,3.79043,13.5389Q5.7447,11.5846,8.50002,11.5846Q10.8958,11.5846,12.5941,9.88634ZM11.2961,2.99629Q12.4563,4.1564700000000006,12.4563,5.79227Q12.4563,7.42809,11.2962,8.58826Q10.136,9.74846,8.50005,9.74846Q6.86426,9.74846,5.70409,8.58823Q4.54396,7.42802,4.54396,5.79227Q4.54397,4.15646,5.70409,2.99628Q6.86423,1.83608,8.50005,1.83608Q10.13593,1.83608,11.2961,2.99629ZM16.7312,18.898Q17,18.6291,17,18.2487Q17,14.0457,13.6564,11.4904Q13.3535,11.2596,12.9773,11.3098Q12.6,11.3601,12.3692,11.663Q11.8122,12.3917,12.5415,12.9494Q15.1639,14.9532,15.1639,18.2487Q15.1639,18.6291,15.4329,18.8981Q15.7018,19.1669,16.081899999999997,19.1669Q16.4623,19.1669,16.7312,18.898Z" fill-rule="evenodd" fill="#FFFFFF" fill-opacity="0.800000011920929"/></g></svg>