<svg xmlns="http://www.w3.org/2000/svg" xmlns:xlink="http://www.w3.org/1999/xlink" fill="none" version="1.1" width="16" height="16" viewBox="0 0 16 16"><g><path d="M15.6213,6.26679C15.0822,5.61362,14.2015,5.61362,13.9117,5.61362L11.589,5.61362C11.7774,4.59798,11.938,3.41674,11.5927,2.17111C11.3564,1.31371,10.9225,0.704692,10.2634,0.310948C9.91817,0.104876,9.56,0,9.19628,0C8.23991,0,7.52356,0.706532,7.41647,1.76081C7.37586,2.15455,7.33893,2.52806,7.24477,2.84821C6.89398,4.02392,6.03731,4.9218,5.24526,5.64121C4.94985,5.90616,4.63414,6.38087,4.63045,6.91444C4.61937,8.34223,4.61753,9.77553,4.61753,11.2401L4.61568,13.8418C4.61199,14.7121,5.07725,15.4131,5.85268,15.713C6.26255,15.8786,6.69643,15.9706,7.14692,15.9834C7.86327,15.9926,8.58332,15.9926,9.25721,15.9926L10.3077,15.9926C10.9945,15.9926,11.6814,15.9926,12.3719,16L12.394,16C13.1972,16,13.8286,15.6007,14.1277,14.9052L14.2163,14.701C14.4249,14.2226,14.6391,13.7277,14.772,13.1776C15.1782,11.5051,15.601,9.71482,15.9426,7.95584C16.0792,7.25851,15.9721,6.68997,15.6213,6.26679ZM2.10106,5.66513L1.88135,5.66513C0.843746,5.66513,0,6.50598,0,7.54002L0,13.9503C0,14.9844,0.843746,15.8252,1.88135,15.8252L2.10106,15.8252C3.13866,15.8252,3.98241,14.9844,3.98241,13.9503L3.98241,7.54002C3.98425,6.50598,3.13866,5.66513,2.10106,5.66513Z" fill="#FFFFFF" fill-opacity="0.800000011920929"/></g></svg>