<svg xmlns="http://www.w3.org/2000/svg" xmlns:xlink="http://www.w3.org/1999/xlink" fill="none" version="1.1" width="20" height="20" viewBox="0 0 20 20"><defs><clipPath id="master_svg0_8_5504/8_4587"><rect x="0" y="0" width="20" height="20" rx="0"/></clipPath></defs><g clip-path="url(#master_svg0_8_5504/8_4587)"><g><path d="M5.24093,5.075685L1.2155209999999999,9.6044C0.878745,9.98328,0.878745,10.55422,1.2155209999999999,10.9331L5.24093,15.4618C5.58492,15.8488,6.17749,15.8837,6.56455,15.5398C6.95172,15.1958,6.98664,14.603,6.64253,14.21593L3.72434,10.93313C3.38753,10.55424,3.38753,9.98326,3.72434,9.60437L6.64253,6.3215699999999995C6.98664,5.93447,6.95172,5.341705,6.56455,4.997688C6.17749,4.653769,5.58492,4.688687,5.24093,5.075685M13.2006,4.997808C12.8137,5.341781,12.7788,5.93431,13.1228,6.3212600000000005L16.0413,9.60437C16.3781,9.98326,16.3781,10.55424,16.0413,10.93313L13.1228,14.21624C12.7788,14.6032,12.8137,15.1957,13.2006,15.5397C13.5876,15.8837,14.1801,15.8488,14.5241,15.4619L18.55,10.933150000000001C18.8868,10.55425,18.8868,9.98325,18.55,9.60435L14.5241,5.075608C14.1801,4.688671,13.5876,4.653839,13.2006,4.997808" fill="#FFFFFF" fill-opacity="0.800000011920929"/></g></g></svg>